<svg xmlns="http://www.w3.org/2000/svg" viewBox="-12 -97.1749 64 99.17">
  <path d="M 4 0 L 18 -4 C 12 -24 12 -46 22 -74 C 6 -46 4 -22 4 0 M 22 -74 C 14 -76 2 -72 -10 -64 C -4 -74 8 -82 18 -80 C 8 -84 0 -84 -10 -74 C -6 -90 14 -90 19.877 -83.556 C 10 -94 3.556 -90.73 -5.232 -86.964 C 4 -98 20 -98 25.079 -86.426 C 37.096 -90.91 48.933 -83.915 50 -72 C 50 -76 41.759 -82.48 26.872 -81.942 C 37 -80 52 -74 44 -53 C 44 -68 38 -75 28 -78 C 38 -71 42 -61 36.916 -45.174 C 36.378 -62.392 28 -73 22 -74 S 13 -73 15 -70 S 20 -70 22 -74 Q 28 -69 25 -67 Q 19 -64 22 -74 M 4 -7 Q 9 -4 18 -4 M 4.311 -12.999 Q 10 -11 15.358 -15.008 M 4.833 -20.069 Q 11.155 -16.162 14.755 -18.984 M 5.198 -23.404 Q 10.297 -22.462 14.108 -25.62 M 6.322 -30.85 Q 10.004 -28.94 13.941 -30.025 M 7.106 -35.251 Q 10.92 -35.198 14.054 -37.006 M 8.585 -41.498 Q 11.041 -39.577 14.214 -39.537 M 9.136 -43.665 Q 13.21 -43.032 14.696 -44.558 M 10.438 -47.973 Q 12.447 -46.727 15.018 -47.049 M 11.764 -51.857 Q 14.216 -51.096 16.005 -52.477 M 13.452 -56.356 Q 15.064 -55.507 16.818 -56.359 M 14.919 -59.949 Q 15.771 -59.271 17.653 -59.898 M 16.952 -64.361 Q 17.797 -63.829 18.908 -64.391" stroke="#FFFFFF" stroke-width="1.5" fill="none"/>
</svg>